<svg xmlns="http://www.w3.org/2000/svg" xmlns:xlink="http://www.w3.org/1999/xlink" width="500" zoomAndPan="magnify" viewBox="0 0 375 374.999991" height="500" preserveAspectRatio="xMidYMid meet" version="1.0"><defs><clipPath id="c3d8c03eb2"><path d="M 184 271 L 208 271 L 208 317.59375 L 184 317.59375 Z M 184 271 " clip-rule="nonzero"/></clipPath><clipPath id="babc30c5a2"><path d="M 184 301 L 208 301 L 208 317.59375 L 184 317.59375 Z M 184 301 " clip-rule="nonzero"/></clipPath><clipPath id="5c5b75b476"><path d="M 70 57.34375 L 113 57.34375 L 113 119 L 70 119 Z M 70 57.34375 " clip-rule="nonzero"/></clipPath><clipPath id="3dc963394d"><path d="M 108 272 L 135 272 L 135 317.59375 L 108 317.59375 Z M 108 272 " clip-rule="nonzero"/></clipPath><clipPath id="8b00136bdd"><path d="M 108 301 L 133 301 L 133 317.59375 L 108 317.59375 Z M 108 301 " clip-rule="nonzero"/></clipPath></defs><rect x="-37.5" width="450" fill="#ffffff" y="-37.499999" height="449.999989" fill-opacity="1"/><rect x="-37.5" width="450" fill="#ffffff" y="-37.499999" height="449.999989" fill-opacity="1"/><rect x="-37.5" width="450" fill="#3a86ff" y="-37.499999" height="449.999989" fill-opacity="1"/><path fill="#935c36" d="M 79.699219 88.089844 C 78.292969 89.117188 77.222656 90.269531 76.421875 91.550781 C 74.664062 88.980469 71.582031 82.773438 72.117188 73.910156 C 72.320312 70.566406 73.382812 62.621094 74.066406 64.347656 C 75.402344 66.941406 77.601562 68.738281 78.761719 70.039062 C 81.507812 73.113281 83.800781 74.222656 86.324219 77.519531 C 87.820312 79.480469 89.195312 82.414062 88.929688 85.097656 C 85.644531 85.253906 82.382812 86.125 79.699219 88.089844 " fill-opacity="1" fill-rule="nonzero"/><path fill="#fac0b0" d="M 76.742188 91.085938 C 73.359375 84.222656 72.226562 77.429688 73.664062 69.960938 C 74.546875 71.515625 75.480469 73.046875 76.503906 74.554688 C 78.914062 78.09375 81.878906 81.738281 82.144531 86.179688 C 82.15625 86.34375 82.1875 86.496094 82.21875 86.652344 C 81.34375 87.050781 80.488281 87.511719 79.699219 88.089844 C 78.46875 88.992188 77.507812 89.996094 76.742188 91.085938 " fill-opacity="1" fill-rule="nonzero"/><path fill="#552d18" d="M 259.730469 168.433594 C 259.730469 168.433594 275.476562 160.394531 277.132812 173.640625 C 278.792969 186.878906 259.402344 215.671875 270.835938 239.671875 C 282.273438 263.671875 309.289062 251.257812 302.824219 235.035156 C 302.824219 235.035156 296.855469 245.234375 291.886719 240.960938 C 286.914062 236.691406 280.121094 232.222656 291.390625 213.855469 C 302.65625 195.484375 319.066406 162.382812 296.03125 142.359375 C 272.988281 122.332031 243.820312 139.046875 246.308594 166.191406 C 248.792969 193.332031 259.730469 168.433594 259.730469 168.433594 " fill-opacity="1" fill-rule="nonzero"/><path fill="#895632" d="M 207.414062 250.714844 C 205.21875 253.347656 203.542969 256.363281 201.625 259.199219 C 197.867188 264.742188 195.628906 270.042969 194.5 272.988281 C 192.222656 278.925781 199.417969 294.125 202.421875 284.894531 C 205.648438 274.984375 213.949219 274.195312 219.929688 265.597656 C 222.121094 262.449219 224.378906 259.355469 226.5 256.144531 C 228.257812 253.472656 229.660156 250.054688 227.226562 247.394531 C 225.441406 245.445312 217.257812 238.910156 207.414062 250.714844 " fill-opacity="1" fill-rule="nonzero"/><g clip-path="url(#c3d8c03eb2)"><path fill="#895632" d="M 195.265625 271.074219 C 193.007812 274.316406 190.699219 293.65625 189.535156 297.015625 C 188.539062 299.894531 186.578125 302.414062 185.945312 305.421875 C 185.375 308.132812 182.746094 313.121094 184.976562 315.421875 C 187.117188 317.621094 191.222656 317.488281 193.984375 317.289062 C 197.519531 317.023438 201.445312 317.097656 204.914062 315.449219 C 207.039062 314.433594 207.566406 313.464844 206.941406 311.238281 C 206.550781 309.875 206.332031 308.550781 205.949219 307.179688 C 205.503906 305.59375 204.882812 304.121094 204.054688 302.816406 C 203.148438 301.386719 202.136719 300.695312 203.265625 299.039062 C 204.378906 297.40625 206.648438 297.152344 207.648438 295.386719 C 208.753906 293.449219 206.789062 292.148438 205.878906 290.453125 C 203.757812 286.511719 203.464844 282.921875 206.050781 278.480469 L 195.265625 271.074219 " fill-opacity="1" fill-rule="nonzero"/></g><g clip-path="url(#babc30c5a2)"><path fill="#251512" d="M 205.949219 307.179688 C 205.5625 305.792969 205.011719 304.519531 204.335938 303.347656 C 200.226562 304.335938 195.394531 304.449219 191.421875 303.558594 C 189.660156 303.160156 188.355469 302.484375 187.421875 301.542969 C 186.800781 302.785156 186.234375 304.054688 185.945312 305.421875 C 185.375 308.132812 182.746094 313.121094 184.976562 315.421875 C 187.117188 317.621094 191.222656 317.488281 193.984375 317.289062 C 197.519531 317.023438 201.445312 317.097656 204.914062 315.449219 C 207.039062 314.433594 207.566406 313.464844 206.941406 311.238281 C 206.550781 309.875 206.332031 308.550781 205.949219 307.179688 " fill-opacity="1" fill-rule="nonzero"/></g><path fill="#895632" d="M 231.792969 174.46875 C 235.007812 180.824219 234.996094 187.285156 233.921875 194.125 C 231.566406 209.058594 224.171875 223.511719 223.949219 238.375 C 223.90625 241.328125 224.191406 243.828125 226.417969 246.328125 C 221.4375 249.578125 205.832031 261.042969 204.722656 254.179688 C 203.234375 244.988281 196.238281 235.234375 194.789062 232.347656 C 186.820312 216.433594 175.171875 203.675781 171.300781 185.488281 C 170.003906 179.382812 171.878906 171.859375 175.59375 166.84375 C 181.222656 159.230469 190.613281 161.578125 199.019531 160.976562 C 207.429688 160.371094 218.5 148.167969 231.792969 174.46875 " fill-opacity="1" fill-rule="nonzero"/><path fill="#895632" d="M 126.488281 224.269531 C 122.105469 226.574219 117.609375 226.644531 112.832031 225.976562 C 102.417969 224.515625 95.195312 222.953125 84.847656 222.972656 C 82.792969 222.976562 80.566406 223.132812 78.4375 223.375 C 76.117188 219.960938 65.980469 207.820312 69.234375 204.246094 C 70.675781 202.664062 73.945312 202.121094 75.78125 201.066406 C 77.660156 199.980469 79.804688 199.0625 81.800781 198.023438 C 92.78125 192.304688 105.5 185.320312 118.109375 182.421875 C 122.34375 181.445312 127.601562 182.664062 131.136719 185.179688 C 136.496094 188.996094 139.277344 194.84375 139.800781 200.671875 C 140.316406 206.496094 144.636719 214.730469 126.488281 224.269531 " fill-opacity="1" fill-rule="nonzero"/><path fill="#895632" d="M 63.917969 217.578125 C 63.949219 221 64.621094 224.386719 64.992188 227.785156 C 65.710938 234.441406 66.585938 241.144531 68.574219 247.554688 C 69.996094 252.136719 71.800781 259.105469 76.796875 261.085938 C 82.695312 263.429688 83.367188 256.058594 82.800781 252.128906 C 81.320312 241.820312 84.105469 231.277344 83.105469 220.855469 C 82.738281 217.039062 82.453125 213.222656 81.992188 209.402344 C 81.613281 206.230469 80.464844 202.710938 76.890625 202.257812 C 74.261719 201.921875 63.792969 202.21875 63.917969 217.578125 " fill-opacity="1" fill-rule="nonzero"/><path fill="#935c36" d="M 118.390625 159.234375 C 118.367188 159.371094 118.351562 159.488281 118.335938 159.601562 C 116.722656 169.96875 111.492188 179.4375 110.523438 189.953125 C 109.671875 199.183594 108.523438 219.800781 114.582031 226.957031 C 121.464844 235.09375 135.292969 229.164062 145.609375 230.789062 C 156.855469 232.558594 168.699219 233.613281 180.078125 233.183594 C 196.167969 232.582031 216.835938 226.800781 231.621094 220.257812 C 245.152344 214.269531 252.785156 209.167969 255.308594 205.515625 C 262.09375 195.691406 266.507812 186.734375 264.226562 175.265625 C 262.097656 164.558594 255.921875 156.828125 244.871094 154.898438 C 242.0625 154.40625 215.269531 154.144531 212.511719 154.050781 C 200.40625 153.632812 188.675781 156.453125 176.460938 157.515625 C 168.617188 158.195312 152.21875 150.21875 148.363281 122.109375 C 146.667969 109.753906 142.949219 96.566406 120.175781 83.617188 L 114.882812 142.675781 C 120.527344 142.890625 118.964844 155.429688 118.390625 159.234375 " fill-opacity="1" fill-rule="nonzero"/><path fill="#fac0ad" d="M 58.617188 132.144531 C 59.363281 134.445312 64.230469 137.984375 66.535156 137.238281 C 68.84375 136.492188 67.710938 131.742188 66.960938 129.4375 C 66.210938 127.132812 63.738281 125.875 61.429688 126.621094 C 59.128906 127.371094 57.867188 129.84375 58.617188 132.144531 " fill-opacity="1" fill-rule="nonzero"/><path fill="#935c36" d="M 120.175781 83.617188 C 115.574219 80.816406 108.929688 79.792969 103.511719 79.523438 C 93.597656 79.023438 77.9375 82.074219 74.519531 92.40625 C 71.65625 101.066406 73.675781 111.066406 70.761719 119.527344 C 67.496094 129.011719 58.882812 134.457031 57.484375 144.867188 C 56.285156 153.789062 59.90625 163.21875 69.558594 165.210938 C 73.132812 165.949219 78.933594 166.464844 82.398438 165.246094 C 86.914062 163.660156 88.125 159.285156 90.773438 156.121094 C 96.632812 149.125 107.9375 153.425781 115.378906 148.0625 C 124.289062 141.640625 126.140625 129.921875 127.339844 120.886719 C 131.335938 90.816406 125.367188 86.777344 120.175781 83.617188 " fill-opacity="1" fill-rule="nonzero"/><path fill="#fac0ad" d="M 94.835938 153.140625 C 96.046875 148.734375 95.714844 144.039062 92.820312 139.625 C 87.398438 131.359375 75.738281 123.300781 65.980469 128.273438 C 62.40625 133.363281 58.398438 138.050781 57.484375 144.867188 C 56.285156 153.789062 59.90625 163.21875 69.558594 165.210938 C 73.132812 165.949219 78.933594 166.464844 82.398438 165.246094 C 86.914062 163.660156 88.125 159.285156 90.773438 156.121094 C 91.9375 154.734375 93.320312 153.804688 94.835938 153.140625 " fill-opacity="1" fill-rule="nonzero"/><path fill="#784a2b" d="M 124.453125 109.90625 C 124.453125 109.90625 124.820312 110.40625 125.335938 111.367188 C 125.847656 112.324219 126.503906 113.738281 127.074219 115.527344 C 127.34375 116.421875 127.632812 117.402344 127.828125 118.464844 C 128.035156 119.519531 128.21875 120.648438 128.292969 121.828125 C 128.390625 123.003906 128.40625 124.226562 128.34375 125.472656 C 128.253906 126.710938 128.132812 127.96875 127.886719 129.210938 C 127.652344 130.457031 127.304688 131.675781 126.921875 132.855469 C 126.542969 134.039062 126.039062 135.160156 125.53125 136.226562 C 125.015625 137.285156 124.453125 138.277344 123.859375 139.175781 C 123.296875 140.097656 122.667969 140.898438 122.097656 141.640625 C 121.5 142.359375 120.960938 143.023438 120.421875 143.558594 C 119.898438 144.105469 119.445312 144.582031 119.035156 144.9375 C 118.226562 145.667969 117.757812 146.0625 117.757812 146.0625 C 117.757812 146.0625 118.117188 145.554688 118.757812 144.695312 C 119.089844 144.277344 119.441406 143.71875 119.871094 143.117188 C 120.308594 142.515625 120.730469 141.789062 121.230469 141.03125 C 121.480469 140.652344 121.695312 140.226562 121.941406 139.808594 C 122.183594 139.382812 122.441406 138.953125 122.667969 138.484375 C 123.160156 137.574219 123.601562 136.578125 124.050781 135.554688 C 124.492188 134.523438 124.867188 133.425781 125.222656 132.3125 C 125.570312 131.191406 125.875 130.039062 126.074219 128.863281 C 126.324219 127.703125 126.460938 126.519531 126.570312 125.351562 C 126.628906 124.183594 126.71875 123.023438 126.671875 121.90625 C 126.648438 120.785156 126.585938 119.703125 126.472656 118.675781 C 126.363281 117.648438 126.203125 116.679688 126.046875 115.785156 C 125.375 112.21875 124.453125 109.90625 124.453125 109.90625 " fill-opacity="1" fill-rule="nonzero"/><path fill="#fac0ad" d="M 92.839844 133.589844 C 91.59375 137.417969 83.5 143.300781 79.667969 142.058594 C 75.835938 140.816406 77.714844 132.917969 78.960938 129.09375 C 80.207031 125.265625 84.320312 123.167969 88.152344 124.410156 C 91.984375 125.652344 94.085938 129.765625 92.839844 133.589844 " fill-opacity="1" fill-rule="nonzero"/><path fill="#f8a48d" d="M 87.773438 129.027344 C 87.160156 128.277344 86.320312 127.652344 85.382812 127.429688 C 84.488281 127.222656 82.621094 127.453125 81.988281 128.226562 C 81.128906 129.285156 81.976562 130.996094 82.535156 131.996094 C 84.074219 134.753906 84.890625 136.851562 84.378906 139.4375 C 85.796875 138.609375 87.21875 136.824219 87.835938 135.964844 C 89.167969 134.097656 89.390625 131.417969 88.109375 129.480469 C 88.011719 129.324219 87.898438 129.175781 87.773438 129.027344 " fill-opacity="1" fill-rule="nonzero"/><path fill="#f79889" d="M 83.824219 132.34375 C 83.261719 131.339844 82.421875 129.628906 83.277344 128.570312 C 83.804688 127.925781 85.179688 127.664062 86.144531 127.714844 C 85.898438 127.59375 85.644531 127.492188 85.382812 127.429688 C 84.488281 127.222656 82.621094 127.453125 81.988281 128.226562 C 81.128906 129.285156 81.976562 130.996094 82.535156 131.996094 C 84.074219 134.753906 84.890625 136.851562 84.378906 139.4375 C 84.867188 139.152344 85.351562 138.75 85.808594 138.316406 C 85.820312 136.355469 85.0625 134.5625 83.824219 132.34375 " fill-opacity="1" fill-rule="nonzero"/><path fill="#f8a48d" d="M 92.957031 148.148438 C 92.957031 148.148438 92.875 148.625 92.632812 149.433594 C 92.378906 150.238281 92.019531 151.398438 91.398438 152.714844 C 91.09375 153.375 90.726562 154.074219 90.320312 154.804688 C 89.898438 155.523438 89.449219 156.289062 88.898438 157.019531 C 88.359375 157.761719 87.769531 158.503906 87.105469 159.203125 C 86.449219 159.910156 85.734375 160.585938 84.972656 161.207031 C 84.601562 161.527344 84.191406 161.796875 83.800781 162.09375 C 83.390625 162.359375 82.988281 162.636719 82.574219 162.882812 C 81.738281 163.371094 80.878906 163.792969 80.027344 164.132812 C 79.179688 164.488281 78.320312 164.738281 77.507812 164.9375 C 76.6875 165.140625 75.90625 165.261719 75.179688 165.367188 C 74.457031 165.4375 73.789062 165.503906 73.199219 165.496094 C 72.605469 165.484375 72.089844 165.515625 71.671875 165.46875 C 70.828125 165.398438 70.347656 165.359375 70.347656 165.359375 C 70.347656 165.359375 70.828125 165.335938 71.667969 165.292969 C 72.089844 165.289062 72.59375 165.203125 73.175781 165.15625 C 73.753906 165.097656 74.398438 164.960938 75.097656 164.851562 C 75.796875 164.703125 76.550781 164.542969 77.328125 164.289062 C 78.101562 164.046875 78.902344 163.742188 79.707031 163.382812 C 80.519531 163.039062 81.3125 162.589844 82.109375 162.121094 C 82.507812 161.882812 82.886719 161.613281 83.277344 161.351562 C 83.648438 161.066406 84.039062 160.800781 84.390625 160.492188 C 85.128906 159.902344 85.820312 159.261719 86.460938 158.59375 C 87.097656 157.921875 87.710938 157.238281 88.25 156.53125 C 89.339844 155.136719 90.253906 153.738281 90.933594 152.480469 C 91.621094 151.230469 92.144531 150.152344 92.464844 149.375 C 92.792969 148.601562 92.957031 148.148438 92.957031 148.148438 " fill-opacity="1" fill-rule="nonzero"/><g clip-path="url(#5c5b75b476)"><path fill="#552d18" d="M 103.511719 79.523438 C 103.386719 79.585938 99.175781 82.113281 98.265625 84.21875 C 97.03125 87.0625 98.363281 90.289062 98.09375 93.207031 C 96.714844 91.890625 96.34375 89.53125 96.25 87.714844 C 92.203125 89.824219 92.828125 95.875 92.542969 99.644531 C 91.792969 97.472656 91.15625 93.035156 88.984375 91.699219 C 88.390625 94.105469 88.859375 97.214844 88.570312 99.6875 C 88.222656 102.609375 87.449219 104.769531 85.476562 107.058594 C 83.949219 108.828125 82.203125 110.132812 81.199219 112.285156 C 80.058594 114.722656 79.976562 116.28125 79.777344 118.972656 C 79.09375 117.261719 78.890625 116.121094 78.890625 114.097656 C 78.890625 111.535156 79.457031 109.449219 80.269531 107.019531 C 81.84375 102.320312 81.230469 96.085938 79.175781 91.730469 C 77.925781 91.621094 75.660156 90.632812 73.398438 95.527344 C 73.097656 92.636719 73.941406 89.769531 74.894531 87.058594 C 75.453125 85.476562 76.582031 84.074219 77.027344 82.496094 C 74.929688 83.203125 72.886719 85.042969 70.453125 85.398438 C 72.144531 81.652344 74.285156 79.167969 77.535156 76.414062 C 78.839844 75.316406 79.902344 74.046875 81.355469 73.15625 C 82.195312 72.644531 83.210938 72.277344 83.9375 71.65625 C 81.621094 69.550781 78.351562 70.644531 75.523438 70.296875 C 77.636719 67.898438 80.160156 66.378906 82.921875 64.835938 C 85.15625 63.589844 86.285156 63.050781 88.871094 63.132812 C 90.265625 63.179688 91.644531 63.351562 93.039062 63.261719 C 91.871094 62.542969 90.550781 61.652344 89.269531 61.023438 C 87.222656 60.011719 84.109375 59.6875 82.421875 58.402344 C 85.382812 57.375 88.933594 57.800781 91.953125 58.335938 C 93.683594 58.644531 95.449219 59.207031 97.0625 59.9375 C 98.097656 60.40625 100.367188 62.210938 101.34375 61.910156 C 101.34375 61.910156 110.445312 64.671875 112.113281 70.039062 C 113.777344 75.410156 103.511719 79.523438 103.511719 79.523438 " fill-opacity="1" fill-rule="nonzero"/></g><path fill="#3a2015" d="M 108.289062 112.917969 C 108.289062 112.917969 108.109375 112.566406 107.847656 111.980469 C 107.714844 111.699219 107.554688 111.355469 107.375 110.964844 C 107.179688 110.585938 106.984375 110.164062 106.738281 109.765625 C 106.496094 109.363281 106.222656 108.976562 105.914062 108.671875 C 105.753906 108.515625 105.59375 108.375 105.398438 108.21875 C 105.300781 108.140625 105.1875 108.0625 105.066406 107.957031 L 105.019531 107.917969 L 105 107.898438 L 104.992188 107.894531 L 105.035156 107.9375 L 105.019531 107.925781 L 104.921875 107.851562 L 104.730469 107.703125 L 104.476562 107.570312 C 104.378906 107.519531 104.285156 107.460938 104.183594 107.421875 C 103.980469 107.324219 103.765625 107.261719 103.558594 107.191406 C 103.132812 107.082031 102.6875 107.011719 102.230469 107.039062 C 101.769531 107.039062 101.308594 107.132812 100.839844 107.277344 C 100.4375 107.402344 100.363281 107.457031 100.160156 107.523438 C 99.953125 107.617188 99.753906 107.722656 99.566406 107.835938 C 99.195312 108.070312 98.851562 108.359375 98.546875 108.707031 C 98.234375 109.050781 97.976562 109.464844 97.734375 109.871094 C 97.5 110.28125 97.292969 110.691406 97.121094 111.078125 C 96.949219 111.460938 96.78125 111.8125 96.664062 112.101562 C 96.410156 112.691406 96.246094 113.046875 96.246094 113.046875 C 96.246094 113.046875 96.0625 112.699219 95.878906 112.066406 C 95.6875 111.425781 95.464844 110.496094 95.519531 109.285156 C 95.5625 108.683594 95.660156 108.007812 95.933594 107.292969 C 96.203125 106.585938 96.636719 105.847656 97.25 105.210938 C 97.554688 104.886719 97.90625 104.617188 98.273438 104.351562 C 98.664062 104.09375 99.1875 103.816406 99.445312 103.714844 C 100.25 103.347656 101.183594 103.132812 102.125 103.105469 C 103.070312 103.085938 104.03125 103.257812 104.894531 103.625 C 105.328125 103.804688 105.742188 104.03125 106.109375 104.300781 C 106.304688 104.425781 106.472656 104.574219 106.648438 104.714844 C 106.816406 104.859375 107.011719 105.058594 107.160156 105.21875 C 107.277344 105.363281 107.398438 105.507812 107.515625 105.652344 C 107.613281 105.78125 107.722656 105.933594 107.832031 106.097656 C 108.046875 106.414062 108.273438 106.765625 108.421875 107.128906 C 108.746094 107.847656 108.867188 108.542969 108.917969 109.144531 C 108.996094 110.359375 108.796875 111.28125 108.621094 111.929688 C 108.550781 112.253906 108.4375 112.492188 108.386719 112.65625 C 108.324219 112.824219 108.289062 112.917969 108.289062 112.917969 " fill-opacity="1" fill-rule="nonzero"/><path fill="#3a2015" d="M 76.671875 103.175781 C 76.605469 102.875 76.503906 102.578125 76.382812 102.292969 L 76.210938 101.90625 L 75.964844 101.480469 C 75.890625 101.359375 75.863281 101.273438 75.746094 101.121094 L 75.355469 100.667969 C 75.082031 100.359375 74.816406 100.164062 74.511719 99.9375 C 74.085938 99.65625 73.605469 99.453125 73.113281 99.300781 C 73 100.339844 72.917969 101.390625 72.847656 102.4375 L 72.925781 102.46875 C 73.058594 102.5625 73.257812 102.648438 73.347656 102.722656 L 73.515625 102.832031 C 73.578125 102.871094 73.6875 103.007812 73.769531 103.089844 L 73.898438 103.230469 L 73.964844 103.300781 L 73.972656 103.308594 L 73.925781 103.238281 L 73.941406 103.253906 L 73.96875 103.285156 L 74.179688 103.542969 C 74.308594 103.6875 74.402344 103.835938 74.503906 103.972656 C 74.6875 104.257812 74.851562 104.589844 74.976562 104.941406 C 75.195312 105.652344 75.371094 106.296875 75.46875 106.816406 C 75.578125 107.3125 75.667969 107.601562 75.667969 107.601562 C 75.667969 107.601562 75.835938 107.347656 76.074219 106.894531 C 76.195312 106.671875 76.328125 106.390625 76.433594 106.035156 C 76.566406 105.683594 76.667969 105.269531 76.726562 104.804688 C 76.78125 104.332031 76.804688 103.78125 76.671875 103.175781 " fill-opacity="1" fill-rule="nonzero"/><path fill="#895632" d="M 69.75 251.308594 C 71.824219 263.492188 77.96875 267.335938 78.933594 267.902344 C 81.996094 269.707031 84.820312 271.996094 87.222656 274.617188 C 89.285156 276.863281 90.578125 279.785156 92.929688 281.765625 C 95.042969 283.554688 98.1875 288.238281 101.269531 287.371094 C 104.226562 286.539062 106.066406 282.867188 107.199219 280.351562 C 108.644531 277.117188 110.582031 273.707031 110.773438 269.871094 C 110.894531 267.519531 110.285156 266.597656 108.03125 266.09375 C 106.640625 265.777344 105.371094 265.347656 103.980469 265.03125 C 102.375 264.667969 100.78125 264.515625 99.238281 264.625 C 97.542969 264.738281 96.457031 265.292969 95.535156 263.519531 C 94.628906 261.761719 95.476562 259.652344 94.40625 257.933594 C 93.21875 256.042969 91.140625 257.148438 89.210938 257.140625 C 84.734375 257.128906 82.898438 254.582031 82.386719 243.367188 L 69.75 251.308594 " fill-opacity="1" fill-rule="nonzero"/><path fill="#251512" d="M 108.03125 266.09375 C 106.640625 265.777344 105.371094 265.347656 103.980469 265.03125 C 102.375 264.667969 100.78125 264.515625 99.238281 264.625 L 99.234375 264.625 C 98.960938 267.199219 98.515625 269.734375 97.058594 271.933594 C 95.253906 274.65625 92.929688 277.03125 89.875 278.152344 C 90.777344 279.460938 91.710938 280.738281 92.929688 281.765625 C 95.042969 283.554688 98.1875 288.238281 101.269531 287.371094 C 104.226562 286.539062 106.066406 282.867188 107.199219 280.351562 C 108.644531 277.117188 110.582031 273.707031 110.773438 269.871094 C 110.894531 267.519531 110.285156 266.597656 108.03125 266.09375 " fill-opacity="1" fill-rule="nonzero"/><path fill="#935c36" d="M 117.964844 244.597656 C 117.394531 248.164062 117.503906 251.800781 117.285156 255.40625 C 116.863281 262.453125 116.59375 269.578125 117.53125 276.59375 C 118.203125 281.609375 118.855469 289.167969 123.699219 292.113281 C 129.425781 295.582031 131.421875 288.035156 131.523438 283.851562 C 131.796875 272.867188 136.550781 262.390625 137.34375 251.375 C 137.632812 247.339844 138.011719 243.320312 138.203125 239.265625 C 138.367188 235.898438 137.792969 232.039062 134.152344 230.941406 C 131.480469 230.128906 120.539062 228.597656 117.964844 244.597656 " fill-opacity="1" fill-rule="nonzero"/><g clip-path="url(#3dc963394d)"><path fill="#935c36" d="M 117.082031 272.003906 C 117.875 280.542969 118.074219 283.296875 117.953125 284.464844 C 117.566406 288.199219 116.601562 291.90625 115.140625 295.359375 C 113.886719 298.320312 111.652344 300.835938 110.773438 303.957031 C 109.984375 306.769531 106.863281 311.839844 109.050781 314.414062 C 111.152344 316.875 115.484375 317.027344 118.402344 317.003906 C 122.140625 316.972656 126.265625 317.332031 130.039062 315.835938 C 132.34375 314.914062 132.964844 313.933594 132.460938 311.546875 C 132.152344 310.082031 132.011719 308.675781 131.703125 307.203125 C 131.347656 305.5 130.792969 303.910156 130.011719 302.480469 C 129.164062 300.90625 128.148438 300.113281 129.453125 298.449219 C 130.738281 296.808594 133.140625 296.699219 134.320312 294.910156 C 135.617188 292.945312 133.640625 291.445312 132.800781 289.59375 C 130.847656 285.296875 132.339844 282.34375 132.519531 275.273438 L 117.082031 272.003906 " fill-opacity="1" fill-rule="nonzero"/></g><g clip-path="url(#8b00136bdd)"><path fill="#251512" d="M 131.703125 307.203125 C 131.367188 305.605469 130.84375 304.117188 130.136719 302.753906 C 126.273438 303.269531 122.382812 303.5625 118.476562 303.246094 C 116.230469 303.0625 113.726562 302.628906 111.847656 301.335938 C 111.414062 302.179688 111.03125 303.039062 110.773438 303.957031 C 109.984375 306.769531 106.863281 311.839844 109.050781 314.414062 C 111.152344 316.875 115.484375 317.027344 118.402344 317.003906 C 122.140625 316.972656 126.265625 317.332031 130.039062 315.835938 C 132.34375 314.914062 132.964844 313.933594 132.460938 311.546875 C 132.152344 310.082031 132.011719 308.675781 131.703125 307.203125 " fill-opacity="1" fill-rule="nonzero"/></g><path fill="#935c36" d="M 156.335938 208.382812 C 157.171875 213.539062 155.734375 218.054688 153.460938 222.59375 C 148.507812 232.511719 138.230469 244.679688 135.929688 260.527344 C 135.621094 262.671875 117.585938 270.867188 116.902344 265.816406 C 114.160156 245.601562 112.167969 227.015625 115.609375 185.464844 C 115.984375 180.902344 131.15625 185.738281 137.164062 187.175781 C 143.171875 188.613281 152.875 187.066406 156.335938 208.382812 " fill-opacity="1" fill-rule="nonzero"/><path fill="#935c36" d="M 262.175781 243.007812 C 259.5625 245.230469 257.398438 247.917969 255.019531 250.378906 C 250.375 255.203125 243.898438 261.308594 242.285156 264.019531 C 239.027344 269.484375 256.351562 279.875 256.324219 270.171875 C 256.3125 265.105469 267.511719 261.179688 269.695312 259.882812 C 273.847656 257.425781 277.417969 254.40625 280.050781 251.605469 C 282.242188 249.277344 284.210938 246.140625 282.265625 243.113281 C 280.839844 240.882812 273.886719 233.054688 262.175781 243.007812 " fill-opacity="1" fill-rule="nonzero"/><path fill="#935c36" d="M 242.285156 264.019531 C 238.550781 271.867188 249.230469 287.535156 250.402344 290.894531 C 251.40625 293.765625 252.953125 297.609375 254.324219 300.363281 C 255.5625 302.84375 257.449219 307.617188 260.628906 308.03125 C 263.667969 308.433594 266.8125 305.789062 268.851562 303.917969 C 271.457031 301.519531 274.585938 299.152344 276.285156 295.703125 C 277.320312 293.59375 277.128906 292.507812 275.253906 291.148438 C 274.101562 290.316406 273.109375 289.414062 271.957031 288.578125 C 270.621094 287.609375 269.21875 286.84375 267.757812 286.332031 C 266.15625 285.769531 264.9375 285.851562 264.792969 283.851562 C 264.652344 281.886719 266.273438 280.285156 265.964844 278.277344 C 265.625 276.074219 263.273438 276.269531 261.507812 275.507812 C 257.398438 273.726562 256.550781 272.539062 255.824219 267.453125 L 242.285156 264.019531 " fill-opacity="1" fill-rule="nonzero"/><path fill="#251512" d="M 275.253906 291.148438 C 274.101562 290.316406 273.109375 289.414062 271.957031 288.578125 C 270.621094 287.609375 269.21875 286.84375 267.757812 286.332031 C 267.402344 286.203125 267.066406 286.109375 266.757812 286.023438 C 262.863281 290.335938 257.34375 292.917969 251.660156 294.246094 C 252.496094 296.378906 253.441406 298.59375 254.324219 300.363281 C 255.5625 302.84375 257.449219 307.617188 260.628906 308.03125 C 263.667969 308.433594 266.8125 305.789062 268.851562 303.917969 C 271.457031 301.519531 274.585938 299.152344 276.285156 295.703125 C 277.320312 293.59375 277.128906 292.507812 275.253906 291.148438 " fill-opacity="1" fill-rule="nonzero"/><path fill="#935c36" d="M 262.9375 225.683594 C 260.957031 216.503906 265.21875 214.125 267.484375 206.457031 C 270.871094 194.976562 269.953125 188.214844 268.332031 181.277344 C 261.617188 152.589844 249.929688 154.675781 240.25 154.21875 C 231.828125 153.820312 222.773438 154.574219 215.507812 160.644531 C 210.714844 164.648438 207.304688 171.527344 206.941406 177.761719 C 205.324219 205.050781 209.523438 213.582031 218.707031 228.824219 C 229.847656 247.308594 256.546875 240.246094 255.824219 249.527344 C 255.355469 255.554688 267.945312 244.433594 275.40625 238.324219 C 270.503906 237.824219 264.824219 234.425781 262.9375 225.683594 " fill-opacity="1" fill-rule="nonzero"/><path fill="#784a2b" d="M 206.628906 185.464844 C 206.628906 185.464844 206.617188 185.644531 206.59375 185.980469 C 206.5625 186.316406 206.550781 186.808594 206.523438 187.4375 C 206.511719 188.0625 206.484375 188.824219 206.507812 189.699219 C 206.519531 190.570312 206.554688 191.554688 206.613281 192.628906 C 206.640625 193.699219 206.789062 194.855469 206.882812 196.078125 C 206.964844 196.6875 207.046875 197.3125 207.132812 197.953125 C 207.214844 198.59375 207.289062 199.246094 207.414062 199.902344 C 207.527344 200.5625 207.636719 201.238281 207.75 201.914062 C 207.875 202.59375 208.039062 203.269531 208.183594 203.957031 C 208.453125 205.335938 208.855469 206.703125 209.238281 208.082031 L 209.511719 209.113281 L 209.839844 210.132812 C 210.0625 210.808594 210.277344 211.480469 210.492188 212.148438 C 210.929688 213.488281 211.496094 214.75 211.96875 216.003906 C 212.191406 216.636719 212.5 217.21875 212.757812 217.808594 C 213.027344 218.398438 213.285156 218.972656 213.539062 219.53125 C 214.011719 220.667969 214.605469 221.667969 215.105469 222.621094 C 215.355469 223.09375 215.601562 223.546875 215.828125 223.980469 C 216.050781 224.421875 216.273438 224.828125 216.511719 225.195312 C 216.964844 225.941406 217.363281 226.589844 217.691406 227.125 C 218.335938 228.207031 218.707031 228.824219 218.707031 228.824219 C 218.707031 228.824219 218.28125 228.242188 217.542969 227.226562 C 217.175781 226.714844 216.730469 226.089844 216.21875 225.375 C 215.683594 224.675781 215.214844 223.796875 214.652344 222.875 C 214.109375 221.941406 213.464844 220.957031 212.933594 219.832031 C 212.390625 218.71875 211.734375 217.574219 211.230469 216.316406 C 210.730469 215.058594 210.144531 213.78125 209.683594 212.433594 C 209.453125 211.761719 209.222656 211.082031 208.988281 210.398438 L 208.640625 209.375 L 208.347656 208.332031 C 207.984375 206.929688 207.59375 205.539062 207.34375 204.132812 C 207.207031 203.4375 207.050781 202.746094 206.933594 202.0625 C 206.828125 201.371094 206.726562 200.691406 206.621094 200.019531 C 206.386719 198.6875 206.34375 197.371094 206.214844 196.136719 C 206.175781 194.898438 206.078125 193.726562 206.09375 192.640625 C 206.097656 192.101562 206.085938 191.582031 206.097656 191.09375 C 206.121094 190.597656 206.144531 190.128906 206.164062 189.691406 C 206.207031 188.8125 206.285156 188.050781 206.34375 187.425781 C 206.480469 186.167969 206.628906 185.464844 206.628906 185.464844 " fill-opacity="1" fill-rule="nonzero"/><path fill="#784a2b" d="M 148.316406 231.203125 C 148.316406 231.203125 148.617188 230.617188 149.140625 229.597656 C 149.402344 229.085938 149.742188 228.476562 150.089844 227.757812 C 150.421875 227.03125 150.796875 226.214844 151.222656 225.335938 C 151.644531 224.453125 152.011719 223.453125 152.449219 222.421875 C 152.878906 221.390625 153.210938 220.253906 153.644531 219.113281 C 154.003906 217.945312 154.378906 216.742188 154.699219 215.507812 C 154.851562 214.882812 155.003906 214.257812 155.15625 213.628906 C 155.308594 213 155.402344 212.355469 155.527344 211.71875 C 155.800781 210.449219 155.925781 209.15625 156.09375 207.886719 C 156.195312 206.613281 156.328125 205.363281 156.335938 204.144531 C 156.347656 203.839844 156.355469 203.535156 156.367188 203.238281 C 156.363281 202.9375 156.359375 202.640625 156.355469 202.347656 C 156.34375 201.761719 156.363281 201.1875 156.328125 200.628906 C 156.273438 199.511719 156.210938 198.457031 156.085938 197.488281 C 155.996094 196.511719 155.835938 195.628906 155.738281 194.835938 C 155.59375 194.054688 155.46875 193.371094 155.367188 192.808594 C 155.121094 191.6875 154.980469 191.042969 154.980469 191.042969 C 154.980469 191.042969 155.1875 191.671875 155.542969 192.761719 C 155.6875 193.320312 155.871094 193.996094 156.074219 194.769531 C 156.238281 195.554688 156.472656 196.433594 156.601562 197.414062 C 156.773438 198.390625 156.886719 199.453125 157 200.585938 C 157.0625 201.152344 157.074219 201.734375 157.113281 202.332031 C 157.164062 202.925781 157.164062 203.535156 157.152344 204.15625 C 157.164062 205.394531 157.082031 206.675781 156.984375 207.976562 C 156.921875 208.625 156.824219 209.273438 156.746094 209.929688 C 156.675781 210.582031 156.5625 211.234375 156.433594 211.882812 C 156.300781 212.53125 156.203125 213.1875 156.039062 213.828125 C 155.878906 214.464844 155.71875 215.101562 155.558594 215.730469 C 155.417969 216.371094 155.195312 216.976562 155.003906 217.582031 C 154.800781 218.191406 154.625 218.796875 154.410156 219.375 C 153.957031 220.527344 153.550781 221.65625 153.066406 222.679688 C 152.574219 223.699219 152.160156 224.6875 151.6875 225.558594 C 151.222656 226.433594 150.78125 227.226562 150.390625 227.925781 C 149.984375 228.617188 149.597656 229.195312 149.292969 229.683594 C 148.671875 230.648438 148.316406 231.203125 148.316406 231.203125 " fill-opacity="1" fill-rule="nonzero"/><path fill="#43bcbb" d="M 157.226562 147.613281 C 158.765625 159.878906 158.167969 167.207031 156.640625 172.753906 C 155.675781 176.261719 154.25 179.660156 153.390625 183.195312 C 151.941406 189.152344 155.636719 186.605469 160.078125 187.042969 C 167.613281 187.789062 170.878906 192.890625 178.863281 193.445312 C 187.035156 194.007812 194.148438 191.8125 199.550781 188.234375 C 210.039062 181.292969 213.164062 165.789062 211.46875 154.03125 C 199.730469 153.804688 188.324219 156.488281 176.460938 157.515625 C 171.75 157.921875 163.957031 155.203125 157.644531 146.882812 C 157.542969 147.144531 157.40625 147.394531 157.226562 147.613281 " fill-opacity="1" fill-rule="nonzero"/><path fill="#57c7c9" d="M 159.449219 149.691406 C 159.664062 150.261719 159.863281 150.835938 160.046875 151.410156 L 160.925781 151.128906 C 160.738281 150.539062 160.535156 149.953125 160.3125 149.363281 L 159.449219 149.691406 " fill-opacity="1" fill-rule="nonzero"/><path fill="#57c7c9" d="M 160.996094 154.878906 C 161.269531 156.046875 161.5 157.226562 161.714844 158.414062 L 162.625 158.253906 C 162.410156 157.054688 162.175781 155.863281 161.894531 154.667969 Z M 162.304688 161.992188 C 162.492188 163.175781 162.679688 164.367188 162.882812 165.582031 L 163.792969 165.429688 C 163.585938 164.226562 163.402344 163.03125 163.214844 161.847656 Z M 163.644531 169.191406 C 164.015625 170.46875 164.492188 171.617188 165.058594 172.640625 L 165.867188 172.191406 C 165.335938 171.234375 164.882812 170.152344 164.53125 168.933594 Z M 167.320312 175.632812 C 168.238281 176.527344 169.269531 177.25 170.382812 177.820312 L 170.800781 176.996094 C 169.761719 176.46875 168.816406 175.800781 167.96875 174.972656 Z M 173.910156 179.0625 C 175.09375 179.324219 176.332031 179.464844 177.605469 179.507812 L 177.636719 178.582031 C 176.410156 178.546875 175.230469 178.410156 174.113281 178.164062 Z M 181.300781 179.363281 C 182.5 179.242188 183.71875 179.050781 184.945312 178.800781 L 184.757812 177.894531 C 183.558594 178.140625 182.371094 178.328125 181.207031 178.445312 Z M 188.511719 177.886719 C 189.734375 177.5 190.882812 177.0625 191.960938 176.570312 L 191.574219 175.730469 C 190.535156 176.207031 189.425781 176.632812 188.230469 177.003906 Z M 195.203125 174.789062 C 196.269531 174.09375 197.242188 173.332031 198.128906 172.511719 L 197.503906 171.835938 C 196.652344 172.621094 195.722656 173.347656 194.699219 174.015625 L 195.207031 174.789062 Z M 200.621094 169.761719 C 201.371094 168.78125 202.03125 167.734375 202.613281 166.636719 L 201.800781 166.207031 C 201.238281 167.261719 200.601562 168.261719 199.886719 169.207031 Z M 204.105469 163.257812 C 204.515625 162.121094 204.863281 160.941406 205.152344 159.726562 L 204.25 159.511719 C 203.972656 160.699219 203.636719 161.84375 203.234375 162.945312 L 204.105469 163.257812 " fill-opacity="1" fill-rule="nonzero"/><path fill="#57c7c9" d="M 205.835938 156.058594 C 205.921875 155.453125 205.996094 154.832031 206.0625 154.210938 L 205.144531 154.117188 C 205.078125 154.730469 205.003906 155.332031 204.921875 155.929688 L 205.835938 156.058594 " fill-opacity="1" fill-rule="nonzero"/><path fill="#552d18" d="M 112.652344 74.503906 C 114.53125 70.511719 126.019531 69.328125 130.746094 68.777344 C 134.464844 68.339844 141.578125 70.136719 144.230469 72.601562 C 140.011719 71.550781 137.496094 72.023438 133.40625 73.53125 C 135.085938 77.738281 145.855469 78.636719 149.546875 82.492188 C 154.058594 87.203125 156.472656 93.921875 157.351562 100.417969 C 158.925781 112.050781 158.523438 126.871094 169.578125 135.191406 C 161.714844 139.367188 154.703125 131.625 150.667969 126.804688 C 152.359375 134.128906 156.972656 141.335938 163.515625 145.402344 C 160.738281 146.496094 158.167969 144.640625 155.585938 143.78125 C 157.324219 146.933594 162.117188 152.125 165.257812 154.101562 C 156.386719 158.863281 171.320312 171.492188 170.515625 178.097656 C 168.011719 175.914062 166.265625 172.746094 163.9375 170.152344 C 160.421875 166.234375 160.066406 167.097656 154.777344 167.582031 C 145.511719 168.433594 143.328125 164.796875 140.421875 157.300781 C 136.828125 162.285156 140.304688 168.15625 141.539062 173.113281 C 134.445312 168.875 133.53125 158.144531 135.40625 151.226562 C 137.058594 145.140625 139.269531 138.175781 136.238281 132.378906 C 133.117188 134.089844 131.695312 141.113281 131.972656 144.449219 C 129.414062 139.757812 131.132812 133.058594 132.464844 128.304688 C 134.082031 122.539062 134.96875 119.855469 133.910156 113.792969 C 132.109375 103.488281 133.050781 99.101562 127.527344 89.941406 C 124.453125 84.835938 115.71875 81.597656 115.71875 81.597656 C 115.71875 81.597656 110.59375 78.875 112.652344 74.503906 " fill-opacity="1" fill-rule="nonzero"/><path fill="#935c36" d="M 111.175781 88.089844 C 112.578125 89.117188 113.648438 90.269531 114.453125 91.550781 C 116.207031 88.980469 119.292969 82.773438 118.757812 73.910156 C 118.554688 70.566406 117.488281 62.621094 116.808594 64.347656 C 115.46875 66.941406 113.273438 68.738281 112.113281 70.039062 C 109.367188 73.113281 107.074219 74.222656 104.550781 77.519531 C 103.050781 79.480469 101.679688 82.414062 101.945312 85.097656 C 105.230469 85.253906 108.492188 86.125 111.175781 88.089844 " fill-opacity="1" fill-rule="nonzero"/><path fill="#fac0b0" d="M 114.132812 91.085938 C 117.511719 84.222656 118.648438 77.429688 117.210938 69.960938 C 116.324219 71.515625 115.394531 73.046875 114.367188 74.554688 C 111.957031 78.09375 108.992188 81.738281 108.726562 86.179688 C 108.71875 86.34375 108.683594 86.496094 108.65625 86.652344 C 109.535156 87.050781 110.382812 87.511719 111.175781 88.089844 C 112.40625 88.992188 113.367188 89.996094 114.132812 91.085938 " fill-opacity="1" fill-rule="nonzero"/></svg>