<svg xmlns="http://www.w3.org/2000/svg" xmlns:xlink="http://www.w3.org/1999/xlink" width="500" zoomAndPan="magnify" viewBox="0 0 375 374.999991" height="500" preserveAspectRatio="xMidYMid meet" version="1.0"><defs><clipPath id="2756e2dd85"><path d="M 89 90 L 311 90 L 311 286.621094 L 89 286.621094 Z M 89 90 " clip-rule="nonzero"/></clipPath><clipPath id="310a4b3f49"><path d="M 91 97 L 310 97 L 310 286.621094 L 91 286.621094 Z M 91 97 " clip-rule="nonzero"/></clipPath><clipPath id="fe4698d80d"><path d="M 89 116 L 272 116 L 272 286.621094 L 89 286.621094 Z M 89 116 " clip-rule="nonzero"/></clipPath><clipPath id="7ea0afe6ac"><path d="M 86 88.621094 L 312.519531 88.621094 L 312.519531 286.621094 L 86 286.621094 Z M 86 88.621094 " clip-rule="nonzero"/></clipPath></defs><rect x="-37.5" width="450" fill="#ffffff" y="-37.499999" height="449.999989" fill-opacity="1"/><rect x="-37.5" width="450" fill="#ffffff" y="-37.499999" height="449.999989" fill-opacity="1"/><rect x="-37.5" width="450" fill="#fb5607" y="-37.499999" height="449.999989" fill-opacity="1"/><g clip-path="url(#2756e2dd85)"><path fill="#ffffff" d="M 310.308594 271.164062 L 309.511719 286.597656 L 253.320312 286.597656 L 254.316406 271.164062 Z M 297.40625 203.515625 C 297.40625 203.515625 298.835938 178.3125 277.636719 152.203125 C 282.496094 128.074219 275.980469 95.75 269.796875 90.996094 C 258.117188 91.675781 233.722656 100.222656 220.175781 121.726562 C 206.457031 116.84375 187.097656 115.550781 167.570312 120.425781 C 167.570312 120.425781 144.457031 96.148438 117.355469 90.996094 C 104.203125 100.585938 108.324219 147.324219 108.191406 153.199219 C 99.023438 169.535156 64.351562 219.46875 121.339844 254.484375 C 113.769531 273.957031 110.757812 286.328125 110.757812 286.328125 L 251.257812 286.601562 C 251.257812 286.601562 253.855469 259.21875 256.648438 245.667969 C 259.4375 232.117188 262.03125 209.394531 267.996094 206.734375 C 273.960938 204.070312 278.625 210.386719 278.625 210.386719 C 278.625 210.386719 285.367188 193.847656 290.632812 208.59375 C 289.121094 203.011719 297.40625 203.515625 297.40625 203.515625 Z M 297.40625 203.515625 " fill-opacity="1" fill-rule="nonzero"/></g><path fill="#efb07d" d="M 260.292969 224.535156 C 264.675781 202.414062 273.644531 204.609375 278.625 210.386719 C 279.421875 203.609375 286.59375 201.417969 290.78125 206.800781 C 306.917969 190.859375 309.511719 238.15625 309.511719 238.15625 L 309.511719 268.773438 C 309.511719 268.773438 305.894531 280.53125 281.117188 280.53125 C 259.5 280.53125 253.320312 270.964844 253.320312 270.964844 C 253.320312 270.964844 255.910156 246.65625 260.292969 224.535156 Z M 168.265625 120.710938 C 163.484375 113.558594 132.699219 88.621094 117.753906 91.019531 C 100.816406 110.550781 108.988281 153.199219 108.988281 153.199219 C 108.988281 153.199219 95 171.90625 93.335938 189.984375 C 93.871094 203.3125 130.117188 226.664062 171.554688 191.976562 C 210.933594 159.015625 179.226562 118.71875 179.226562 118.71875 C 179.226562 118.71875 173.847656 119.101562 168.265625 120.710938 Z M 266.414062 102.578125 L 253.320312 129.148438 C 253.320312 129.148438 265.023438 138.847656 268.105469 147.214844 C 271.1875 139.246094 272.007812 118.917969 266.414062 102.578125 Z M 266.414062 102.578125 " fill-opacity="1" fill-rule="nonzero"/><g clip-path="url(#310a4b3f49)"><path fill="#ef5454" d="M 309.511719 286.597656 C 309.511719 286.597656 309.511719 286.597656 285.300781 286.597656 C 304.128906 284.894531 306.425781 234.105469 306.425781 234.105469 Z M 131.835938 129.148438 C 131.835938 129.148438 121.472656 107.625 119.746094 102.578125 C 115.363281 113.207031 114.640625 139.777344 118.058594 147.214844 C 124.777344 139.027344 131.835938 129.148438 131.835938 129.148438 Z M 251.367188 286.597656 C 253.585938 272.710938 256.628906 253.601562 259.078125 238.195312 C 259.066406 238.199219 259.054688 238.203125 259.042969 238.207031 L 261.550781 210.550781 C 261.390625 210.746094 261.1875 211.011719 260.941406 211.371094 C 259.042969 214.113281 254.742188 222.019531 251.269531 240.808594 C 237.042969 245.042969 218.304688 247.960938 193.632812 248.128906 C 97.984375 247.472656 91.46875 205.523438 91.46875 205.523438 C 91.46875 205.523438 89.742188 211.179688 93.414062 220.421875 C 92.34375 219.515625 91.527344 218.800781 91.082031 218.359375 C 93.898438 239.546875 121.472656 255.886719 121.472656 255.886719 L 110.757812 286.601562 C 110.757812 286.601562 122.003906 286.601562 134.226562 286.601562 C 141.664062 262.316406 150.65625 262.953125 150.65625 262.953125 C 169.378906 267.050781 187.359375 268.15625 193.632812 268.15625 C 199.910156 268.15625 217.890625 267.050781 236.613281 262.953125 C 236.613281 262.953125 241.210938 262.628906 246.550781 271.324219 C 244.609375 283.699219 243.984375 286.585938 243.984375 286.585938 Z M 219.664062 121.726562 L 230.691406 124.898438 C 230.691406 124.898438 234.808594 110.078125 252.808594 97.558594 C 240.257812 100.984375 226.707031 110.054688 219.664062 121.726562 Z M 133.585938 97.558594 C 151.585938 110.078125 155.699219 124.898438 155.699219 124.898438 L 166.726562 121.726562 C 159.6875 110.054688 146.136719 100.984375 133.585938 97.558594 Z M 200.914062 214.3125 C 200.914062 214.3125 191.878906 216.386719 184.175781 214.085938 C 185.238281 222.941406 198.257812 223.738281 200.914062 214.3125 Z M 200.914062 214.3125 " fill-opacity="0.298" fill-rule="nonzero"/></g><g clip-path="url(#fe4698d80d)"><path fill="#ffffff" d="M 110.371094 116.808594 C 110.371094 116.808594 108.347656 144.570312 117.835938 157.851562 C 107.792969 165.152344 90.574219 188.875 91.0625 208.195312 C 87.269531 195.640625 92.707031 174.179688 107.722656 154.988281 C 106.195312 143.628906 107.722656 128.003906 110.371094 116.808594 Z M 257.035156 260.351562 C 262.414062 220.445312 271.605469 208.230469 271.605469 208.230469 C 256.484375 204.144531 255.644531 242.601562 257.035156 260.351562 Z M 101.84375 234.105469 C 101.84375 234.105469 120.34375 251.039062 131.703125 252.832031 C 127.121094 258.609375 117.835938 286.601562 117.835938 286.601562 L 109.585938 286.601562 L 120.34375 255.222656 C 120.34375 255.222656 102.269531 246.273438 101.84375 234.105469 Z M 101.84375 234.105469 " fill-opacity="1" fill-rule="nonzero"/></g><g clip-path="url(#7ea0afe6ac)"><path fill="#2b0806" d="M 312.5 286.597656 C 309.957031 286.597656 306.621094 286.597656 306.621094 286.597656 C 306.570312 276.894531 308.277344 226.734375 303.191406 209.832031 C 300.496094 200.886719 292.097656 205.160156 290.957031 212.609375 C 290.195312 208.871094 289.332031 204.851562 285.511719 205.246094 C 280.792969 205.738281 278.863281 214.078125 278.863281 214.078125 C 278.863281 214.078125 275.074219 208 271.605469 208.230469 C 266.132812 208.589844 262.523438 216.632812 259.898438 233.757812 C 258.425781 243.386719 254.628906 286.597656 254.628906 286.597656 L 249.738281 286.597656 C 249.738281 286.597656 252.425781 256.8125 253.289062 250.359375 L 253.316406 250.175781 L 254.007812 245.144531 C 255.582031 234.089844 257.335938 224.0625 259.023438 217.714844 C 263.421875 201.203125 273.402344 199.464844 277.902344 207.394531 C 280.210938 198.890625 290.230469 197.476562 291.289062 204.957031 C 291.617188 203.390625 293.175781 201.511719 295.371094 200.730469 C 294.496094 187.976562 288.914062 172.597656 275.464844 154.191406 C 278.40625 148.011719 281.542969 118.945312 269.195312 93.410156 C 262.949219 93.410156 242.03125 98.523438 221.839844 120.476562 C 225.269531 121.667969 228.492188 123.121094 231.203125 124.898438 C 230.359375 124.929688 211.917969 119.695312 193.476562 119.695312 C 175.03125 119.695312 156.589844 124.929688 155.746094 124.898438 C 158.457031 123.121094 161.679688 121.667969 165.109375 120.476562 C 144.917969 98.523438 124 93.410156 117.753906 93.410156 C 105.40625 118.945312 108.542969 148.011719 111.484375 154.191406 C 62.757812 220.859375 117.265625 247.871094 125.027344 253.929688 C 120.644531 262.894531 112.574219 286.597656 112.574219 286.597656 L 107.160156 286.597656 C 107.160156 286.597656 112.394531 270.082031 118.773438 255.335938 C 70.132812 226.734375 85.871094 179.898438 105.796875 154.988281 C 99.820312 119.71875 112.175781 89.425781 116.957031 88.621094 C 148.644531 94.683594 164.835938 113.566406 169.074219 119.242188 C 174.765625 117.644531 184.117188 115.3125 193.472656 115.3125 C 202.820312 115.3125 212.167969 117.640625 217.875 119.242188 C 222.113281 113.566406 238.304688 94.683594 269.992188 88.621094 C 274.773438 89.425781 287.128906 119.71875 281.152344 154.988281 C 290.605469 166.808594 299.109375 183.566406 300.25 200.96875 C 301.886719 201.695312 303.617188 203.113281 305.3125 205.539062 C 308.484375 210.070312 308.964844 215.910156 310.457031 227.675781 C 311.835938 238.539062 312.5 280.183594 312.5 286.597656 Z M 266.414062 102.578125 C 266.414062 102.578125 257.328125 115.441406 250.652344 129.136719 C 255.128906 132.070312 264.339844 141.636719 268.105469 147.214844 C 269.875 144.027344 260.671875 130.507812 255.988281 127.886719 C 260.863281 122.707031 266.414062 102.578125 266.414062 102.578125 Z M 119.746094 102.578125 C 119.746094 102.578125 128.832031 115.441406 135.511719 129.136719 C 131.03125 132.070312 121.820312 141.636719 118.058594 147.214844 C 116.285156 144.027344 125.488281 130.507812 130.175781 127.886719 C 125.296875 122.707031 119.746094 102.578125 119.746094 102.578125 Z M 145.097656 166.980469 C 134.953125 169.375 128.078125 179.5 125.984375 187.890625 C 125.667969 189.171875 126.351562 190.1875 127.777344 190.542969 C 130.078125 191.117188 134.265625 189.945312 134.882812 187.476562 C 135.6875 184.25 137.054688 181.324219 138.953125 178.777344 C 140.378906 176.855469 143.167969 173.539062 145.800781 172.882812 C 147.914062 172.351562 149.933594 175.808594 151.019531 177.667969 L 151.277344 178.105469 C 153.136719 181.246094 154.640625 184.882812 155.746094 188.921875 C 156.132812 190.339844 157.523438 190.898438 159.058594 190.898438 C 159.703125 190.898438 160.375 190.800781 161.007812 190.625 C 163.585938 189.921875 165.0625 188.242188 164.597656 186.542969 C 160.535156 171.691406 153.792969 164.929688 145.097656 166.980469 Z M 260.167969 186.542969 C 256.105469 171.691406 249.363281 164.929688 240.664062 166.980469 C 230.523438 169.375 223.648438 179.5 221.554688 187.890625 C 221.359375 188.667969 221.542969 189.375 222.0625 189.882812 C 223.160156 190.9375 225.347656 190.796875 226.890625 190.355469 C 228.804688 189.804688 230.136719 188.730469 230.449219 187.476562 C 231.257812 184.25 232.625 181.324219 234.519531 178.777344 C 235.949219 176.855469 238.738281 173.539062 241.367188 172.882812 C 243.484375 172.355469 245.503906 175.8125 246.589844 177.667969 L 246.84375 178.105469 C 248.707031 181.242188 250.210938 184.882812 251.316406 188.921875 C 251.5625 189.820312 252.277344 190.46875 253.332031 190.746094 C 253.734375 190.851562 254.171875 190.902344 254.628906 190.902344 C 256.34375 190.902344 258.292969 190.203125 259.375 189.109375 C 260.128906 188.347656 260.410156 187.4375 260.167969 186.542969 Z M 207.785156 191.011719 C 206.710938 191.585938 206.199219 193.429688 207.25 195.40625 C 207.863281 196.558594 207.210938 197.742188 206.765625 198.347656 C 205.605469 199.929688 203.519531 200.894531 201.917969 200.59375 C 199.15625 200.078125 197.496094 196.832031 196.355469 194.058594 C 195.824219 192.769531 194.703125 191.964844 193.4375 191.964844 C 192.171875 191.964844 191.054688 192.769531 190.523438 194.058594 C 189.585938 196.332031 187.847656 200.5625 184.960938 201.101562 C 183.734375 201.332031 182.207031 200.738281 180.988281 199.566406 C 179.183594 197.75 179.722656 195.382812 179.917969 194.738281 C 179.9375 194.6875 179.953125 194.640625 179.972656 194.570312 L 180.394531 193.453125 L 180.183594 193.453125 C 180.242188 192.28125 179.773438 191.28125 178.933594 190.941406 C 178.214844 190.648438 177.15625 190.875 176.359375 192.375 C 174.867188 195.171875 174.785156 198.496094 176.136719 201.269531 C 177.390625 203.847656 179.75 205.617188 182.613281 206.125 C 186.71875 206.855469 190.445312 205.121094 193.4375 201.105469 C 195.984375 204.523438 199.0625 206.289062 202.453125 206.289062 C 203.046875 206.289062 203.652344 206.234375 204.261719 206.125 C 207.125 205.617188 209.484375 203.847656 210.738281 201.269531 C 212.089844 198.496094 212.007812 195.171875 210.519531 192.375 C 209.65625 190.753906 208.507812 190.628906 207.785156 191.011719 Z M 207.785156 191.011719 " fill-opacity="1" fill-rule="nonzero"/></g><path fill="#ef5454" d="M 284.535156 231.175781 C 283.046875 229.503906 277.085938 224.960938 273.257812 232.371094 C 269.425781 239.785156 279.878906 247.195312 284.535156 247.195312 C 289.191406 247.195312 299.648438 239.785156 295.816406 232.371094 C 291.984375 224.960938 286.027344 229.503906 284.535156 231.175781 Z M 288.191406 218.691406 C 288.191406 216.425781 286.898438 214.59375 285.300781 214.59375 C 283.703125 214.59375 282.410156 216.425781 282.410156 218.691406 C 282.410156 220.953125 283.703125 222.785156 285.300781 222.785156 C 286.898438 222.785156 288.191406 220.953125 288.191406 218.691406 Z M 297.15625 217.054688 C 295.535156 216.808594 293.914062 218.316406 293.535156 220.425781 C 293.15625 222.53125 294.160156 224.441406 295.78125 224.6875 C 297.398438 224.933594 299.019531 223.421875 299.402344 221.316406 C 299.78125 219.210938 298.773438 217.300781 297.15625 217.054688 Z M 273.789062 224.890625 C 275.425781 224.417969 276.152344 222.324219 275.414062 220.222656 C 274.671875 218.117188 272.742188 216.796875 271.105469 217.269531 C 269.46875 217.746094 268.742188 219.835938 269.484375 221.9375 C 270.222656 224.042969 272.152344 225.363281 273.789062 224.890625 Z M 273.789062 224.890625 " fill-opacity="1" fill-rule="nonzero"/></svg>