<svg xmlns="http://www.w3.org/2000/svg" xmlns:xlink="http://www.w3.org/1999/xlink" width="500" zoomAndPan="magnify" viewBox="0 0 375 374.999991" height="500" preserveAspectRatio="xMidYMid meet" version="1.0"><defs><clipPath id="8fc3661235"><path d="M 184 63.019531 L 194 63.019531 L 194 73 L 184 73 Z M 184 63.019531 " clip-rule="nonzero"/></clipPath></defs><rect x="-37.5" width="450" fill="#ffffff" y="-37.499999" height="449.999989" fill-opacity="1"/><rect x="-37.5" width="450" fill="#ffffff" y="-37.499999" height="449.999989" fill-opacity="1"/><rect x="-37.5" width="450" fill="#ffbe0b" y="-37.499999" height="449.999989" fill-opacity="1"/><path fill="#2085b7" d="M 254.707031 303.144531 C 254.707031 308.023438 229.414062 311.980469 198.210938 311.980469 C 167.003906 311.980469 141.707031 308.023438 141.707031 303.144531 C 141.707031 298.265625 167.003906 294.308594 198.210938 294.308594 C 229.414062 294.308594 254.707031 298.265625 254.707031 303.144531 Z M 254.707031 303.144531 " fill-opacity="1" fill-rule="nonzero"/><path fill="#d5e9f2" d="M 240.359375 117.007812 C 225.679688 95.621094 189.972656 95.621094 189.972656 95.621094 C 189.972656 95.621094 154.261719 95.621094 139.589844 117.007812 C 126.113281 136.628906 126.242188 163.449219 126.242188 163.449219 L 139.253906 180.152344 L 240.695312 180.152344 L 253.710938 163.449219 C 253.710938 163.449219 253.835938 136.628906 240.359375 117.007812 Z M 240.359375 117.007812 " fill-opacity="1" fill-rule="nonzero"/><path fill="#a8d7e9" d="M 240.378906 117.007812 C 234.625 108.628906 225.636719 103.523438 216.835938 100.425781 C 221.390625 103.265625 225.523438 106.867188 228.703125 111.492188 C 242.175781 131.117188 242.050781 157.933594 242.050781 157.933594 L 229.035156 174.640625 L 134.996094 174.640625 L 139.289062 180.152344 L 240.714844 180.152344 L 253.730469 163.449219 C 253.730469 163.449219 253.859375 136.628906 240.378906 117.007812 Z M 240.378906 117.007812 " fill-opacity="1" fill-rule="nonzero"/><path fill="#002b43" d="M 222.339844 121.351562 C 208.660156 110.996094 171.289062 110.996094 157.605469 121.351562 C 142.753906 132.597656 143.257812 159.441406 143.257812 159.441406 L 236.691406 159.441406 C 236.691406 159.441406 237.195312 132.59375 222.339844 121.351562 Z M 222.339844 121.351562 " fill-opacity="1" fill-rule="nonzero"/><path fill="#000f16" d="M 143.648438 159.4375 C 144.5625 150.679688 147.597656 136.023438 157.605469 128.449219 C 171.289062 118.089844 208.660156 118.089844 222.339844 128.449219 C 232.347656 136.023438 235.382812 150.675781 236.300781 159.4375 L 236.691406 159.4375 C 236.691406 159.4375 237.195312 132.59375 222.339844 121.351562 C 208.660156 110.996094 171.289062 110.996094 157.605469 121.351562 C 142.753906 132.597656 143.257812 159.441406 143.257812 159.441406 Z M 143.648438 159.4375 " fill-opacity="1" fill-rule="nonzero"/><path fill="#d5e9f2" d="M 178.792969 90.609375 L 201.152344 90.609375 C 201.417969 90.609375 201.671875 90.660156 201.917969 90.761719 C 202.164062 90.863281 202.378906 91.007812 202.566406 91.199219 C 202.753906 91.386719 202.898438 91.601562 203 91.847656 C 203.101562 92.09375 203.152344 92.347656 203.152344 92.613281 L 203.152344 99.632812 C 203.152344 99.898438 203.101562 100.15625 203 100.398438 C 202.898438 100.644531 202.753906 100.863281 202.566406 101.050781 C 202.378906 101.238281 202.164062 101.382812 201.917969 101.484375 C 201.671875 101.585938 201.417969 101.636719 201.152344 101.636719 L 178.792969 101.636719 C 178.527344 101.636719 178.273438 101.585938 178.027344 101.484375 C 177.78125 101.382812 177.566406 101.238281 177.378906 101.050781 C 177.191406 100.863281 177.046875 100.644531 176.945312 100.398438 C 176.84375 100.15625 176.792969 99.898438 176.792969 99.632812 L 176.792969 92.613281 C 176.792969 92.347656 176.84375 92.09375 176.945312 91.847656 C 177.046875 91.601562 177.191406 91.386719 177.378906 91.199219 C 177.566406 91.007812 177.78125 90.863281 178.027344 90.761719 C 178.273438 90.660156 178.527344 90.609375 178.792969 90.609375 Z M 178.792969 90.609375 " fill-opacity="1" fill-rule="nonzero"/><path fill="#d5e9f2" d="M 184.019531 95.953125 L 187.027344 67.890625 L 191.027344 67.890625 L 195.925781 96.121094 Z M 184.019531 95.953125 " fill-opacity="1" fill-rule="nonzero"/><g clip-path="url(#8fc3661235)"><path fill="#d5e9f2" d="M 193.980469 67.878906 C 193.980469 68.195312 193.949219 68.507812 193.886719 68.820312 C 193.824219 69.132812 193.734375 69.433594 193.613281 69.726562 C 193.488281 70.019531 193.339844 70.296875 193.164062 70.5625 C 192.988281 70.824219 192.789062 71.070312 192.566406 71.292969 C 192.339844 71.519531 192.097656 71.71875 191.832031 71.894531 C 191.570312 72.070312 191.292969 72.21875 191 72.339844 C 190.707031 72.464844 190.40625 72.554688 190.09375 72.617188 C 189.785156 72.679688 189.46875 72.710938 189.152344 72.710938 C 188.835938 72.710938 188.523438 72.679688 188.210938 72.617188 C 187.902344 72.554688 187.597656 72.464844 187.304688 72.339844 C 187.011719 72.21875 186.734375 72.070312 186.472656 71.894531 C 186.207031 71.71875 185.964844 71.519531 185.742188 71.292969 C 185.515625 71.070312 185.316406 70.824219 185.140625 70.5625 C 184.964844 70.296875 184.816406 70.019531 184.695312 69.726562 C 184.574219 69.433594 184.480469 69.132812 184.417969 68.820312 C 184.359375 68.507812 184.328125 68.195312 184.328125 67.878906 C 184.328125 67.558594 184.359375 67.246094 184.417969 66.933594 C 184.480469 66.625 184.574219 66.320312 184.695312 66.027344 C 184.816406 65.734375 184.964844 65.457031 185.140625 65.191406 C 185.316406 64.929688 185.515625 64.683594 185.742188 64.460938 C 185.964844 64.238281 186.207031 64.035156 186.472656 63.859375 C 186.734375 63.683594 187.011719 63.535156 187.304688 63.414062 C 187.597656 63.292969 187.902344 63.199219 188.210938 63.136719 C 188.523438 63.078125 188.835938 63.046875 189.152344 63.046875 C 189.46875 63.046875 189.785156 63.078125 190.09375 63.136719 C 190.40625 63.199219 190.707031 63.292969 191 63.414062 C 191.292969 63.535156 191.570312 63.683594 191.832031 63.859375 C 192.097656 64.035156 192.339844 64.238281 192.566406 64.460938 C 192.789062 64.683594 192.988281 64.929688 193.164062 65.191406 C 193.339844 65.457031 193.488281 65.734375 193.613281 66.027344 C 193.734375 66.320312 193.824219 66.625 193.886719 66.933594 C 193.949219 67.246094 193.980469 67.558594 193.980469 67.878906 Z M 193.980469 67.878906 " fill-opacity="1" fill-rule="nonzero"/></g><path fill="#a8d7e9" d="M 192.160156 64.105469 C 192.410156 64.601562 192.566406 65.121094 192.636719 65.671875 C 192.703125 66.21875 192.679688 66.765625 192.558594 67.304688 C 192.441406 67.847656 192.234375 68.351562 191.941406 68.820312 C 191.652344 69.292969 191.289062 69.699219 190.855469 70.042969 C 190.425781 70.390625 189.949219 70.652344 189.425781 70.835938 C 188.902344 71.015625 188.367188 71.105469 187.8125 71.101562 C 187.261719 71.097656 186.722656 71 186.203125 70.8125 C 185.683594 70.625 185.210938 70.355469 184.785156 70.003906 C 184.945312 70.324219 185.140625 70.625 185.367188 70.902344 C 185.59375 71.183594 185.851562 71.433594 186.132812 71.652344 C 186.417969 71.875 186.722656 72.0625 187.046875 72.214844 C 187.375 72.367188 187.710938 72.480469 188.0625 72.558594 C 188.414062 72.636719 188.769531 72.675781 189.128906 72.671875 C 189.488281 72.667969 189.84375 72.628906 190.191406 72.546875 C 190.542969 72.464844 190.878906 72.34375 191.203125 72.1875 C 191.527344 72.03125 191.828125 71.839844 192.109375 71.617188 C 192.390625 71.390625 192.644531 71.136719 192.867188 70.855469 C 193.09375 70.574219 193.285156 70.273438 193.441406 69.949219 C 193.597656 69.625 193.714844 69.289062 193.796875 68.9375 C 193.878906 68.585938 193.921875 68.234375 193.925781 67.871094 C 193.925781 67.511719 193.890625 67.15625 193.8125 66.804688 C 193.734375 66.453125 193.621094 66.113281 193.46875 65.789062 C 193.316406 65.464844 193.128906 65.15625 192.910156 64.875 C 192.6875 64.589844 192.4375 64.332031 192.160156 64.105469 Z M 192.160156 64.105469 " fill-opacity="1" fill-rule="nonzero"/><path fill="#a8d7e9" d="M 139.253906 180.152344 L 240.695312 180.152344 L 253.710938 163.449219 L 126.242188 163.449219 Z M 139.253906 180.152344 " fill-opacity="1" fill-rule="nonzero"/><path fill="#a8d7e9" d="M 203.152344 96.351562 C 203.152344 97.054688 202.707031 97.640625 202.152344 97.640625 L 190.972656 97.640625 C 190.421875 97.640625 189.972656 97.070312 189.972656 96.351562 L 189.972656 91.886719 C 189.972656 91.179688 190.421875 90.597656 190.972656 90.597656 L 202.152344 90.597656 C 202.707031 90.597656 203.152344 91.167969 203.152344 91.886719 Z M 203.152344 96.351562 " fill-opacity="1" fill-rule="nonzero"/><path fill="#ffffff" d="M 170.007812 104.839844 C 168.378906 101.722656 161.023438 103.503906 158.621094 104.644531 C 156.65625 105.570312 153.105469 107.628906 150.839844 109.796875 C 149.023438 111.25 147.421875 112.910156 146.039062 114.78125 C 144.878906 116.34375 142.691406 119.5625 144.09375 121.613281 C 145.636719 123.867188 148.242188 121.914062 149.535156 120.609375 C 152.90625 117.21875 155.492188 113.585938 160.058594 111.519531 C 162.304688 110.519531 171.925781 108.511719 170.007812 104.839844 Z M 170.007812 104.839844 " fill-opacity="1" fill-rule="nonzero"/><path fill="#ffffff" d="M 187.214844 65.097656 C 184.933594 65.648438 185.804688 70.414062 188.609375 67.847656 C 190.835938 65.808594 188.503906 64.523438 187.214844 65.097656 Z M 187.214844 65.097656 " fill-opacity="1" fill-rule="nonzero"/><path fill="#d5e9f2" d="M 259.117188 217.992188 L 239.292969 183.761719 L 140.652344 183.761719 L 120.839844 217.992188 C 120.839844 217.992188 121.6875 232.257812 126.46875 245.300781 C 133.820312 265.34375 140.828125 273.363281 140.828125 273.363281 L 165.085938 282.742188 L 189.753906 285.011719 L 189.753906 285.054688 C 189.753906 285.054688 189.917969 285.03125 189.972656 285.03125 C 190.027344 285.03125 190.195312 285.054688 190.195312 285.054688 L 190.195312 285.011719 L 214.863281 282.742188 L 239.128906 273.355469 C 239.128906 273.355469 247.929688 262 253.488281 245.292969 C 257.871094 232.125 259.117188 217.992188 259.117188 217.992188 Z M 259.117188 217.992188 " fill-opacity="1" fill-rule="nonzero"/><path fill="#a8d7e9" d="M 239.292969 183.761719 L 215.9375 183.761719 L 235.761719 217.992188 C 235.761719 217.992188 234.511719 232.117188 230.128906 245.300781 C 224.574219 262.003906 222.085938 268.65625 215.773438 273.363281 C 210.554688 277.265625 191.507812 282.742188 191.507812 282.742188 L 178.292969 283.957031 L 189.753906 285.011719 L 189.753906 285.054688 C 189.753906 285.054688 189.917969 285.03125 189.972656 285.03125 C 190.027344 285.03125 190.195312 285.054688 190.195312 285.054688 L 190.195312 285.011719 L 214.863281 282.742188 L 239.128906 273.355469 C 239.128906 273.355469 247.929688 262 253.488281 245.292969 C 257.871094 232.109375 259.117188 217.984375 259.117188 217.984375 Z M 239.292969 183.761719 " fill-opacity="1" fill-rule="nonzero"/><path fill="#a8d7e9" d="M 120.828125 218 L 259.117188 218 L 253.730469 228.265625 Z M 120.828125 218 " fill-opacity="1" fill-rule="nonzero"/><path fill="#ffffff" d="M 148.589844 240.703125 C 148.199219 235.734375 151.582031 228.886719 145.921875 226.261719 C 143.023438 224.914062 138.097656 224.359375 135.84375 227.257812 C 135.007812 228.382812 134.566406 229.652344 134.519531 231.054688 C 133.707031 234.597656 135.613281 239.78125 136.503906 242.972656 C 137.546875 246.714844 141.183594 259.863281 147.871094 256.28125 C 152.433594 253.824219 148.878906 244.382812 148.589844 240.703125 Z M 148.589844 240.703125 " fill-opacity="1" fill-rule="nonzero"/><path fill="#ffffff" d="M 155.863281 190.910156 C 152.855469 186.613281 148.625 188.046875 145.609375 191.164062 C 138.910156 195.25 131.792969 211.9375 141.925781 213.574219 C 147.765625 214.511719 149.554688 207.386719 151.539062 203.535156 C 153.351562 200 158.816406 195.121094 155.863281 190.910156 Z M 155.863281 190.910156 " fill-opacity="1" fill-rule="nonzero"/><path fill="#d5e9f2" d="M 245.042969 183.761719 C 245.042969 183.761719 288.421875 156.765625 296.765625 156.765625 C 305.109375 156.765625 301.769531 171.800781 288.421875 188.21875 C 275.472656 204.15625 262.726562 213.667969 262.726562 213.667969 Z M 245.042969 183.761719 " fill-opacity="1" fill-rule="nonzero"/><path fill="#a8d7e9" d="M 296.765625 156.765625 C 295.929688 156.765625 294.746094 157.035156 293.289062 157.519531 C 293.054688 163.394531 288.632812 172.984375 280.421875 183.089844 C 273.6875 191.359375 266.246094 198.9375 258.101562 205.820312 L 262.71875 213.65625 C 262.71875 213.65625 275.460938 204.15625 288.414062 188.207031 C 301.769531 171.800781 305.109375 156.765625 296.765625 156.765625 Z M 296.765625 156.765625 " fill-opacity="1" fill-rule="nonzero"/><path fill="#d5e9f2" d="M 136.863281 183.761719 C 136.863281 183.761719 82.894531 175.035156 76.253906 177.800781 C 69.613281 180.570312 77.3125 192.429688 93.449219 202.171875 C 109.109375 211.625 118.222656 214.195312 118.222656 214.195312 Z M 136.863281 183.761719 " fill-opacity="1" fill-rule="nonzero"/><path fill="#a8d7e9" d="M 76.253906 177.800781 C 76.917969 177.527344 77.949219 177.367188 79.273438 177.304688 C 81.433594 182.289062 88.167969 189.089844 98.101562 195.089844 C 108.855469 201.574219 117.015625 205.308594 124.484375 203.96875 L 118.21875 214.195312 C 118.21875 214.195312 109.101562 211.621094 93.449219 202.171875 C 77.3125 192.429688 69.609375 180.570312 76.253906 177.800781 Z M 76.253906 177.800781 " fill-opacity="1" fill-rule="nonzero"/><path fill="#ffffff" d="M 100.9375 183.816406 C 99.410156 181.382812 93.984375 179.921875 91.4375 180.058594 C 90.125 180.128906 89.253906 180.578125 88.761719 181.199219 C 87.558594 181.953125 87.671875 182.929688 88.546875 183.910156 C 88.785156 184.394531 89.121094 184.800781 89.550781 185.128906 C 89.980469 185.460938 90.457031 185.675781 90.988281 185.777344 L 90.988281 185.734375 C 95.96875 188.492188 104.808594 189.964844 100.9375 183.816406 Z M 100.9375 183.816406 " fill-opacity="1" fill-rule="nonzero"/><path fill="#ffffff" d="M 287.433594 163.046875 C 286.289062 162.296875 282.976562 163.984375 282.035156 164.449219 C 280.464844 165.222656 276.402344 167.78125 275.554688 170.226562 C 274.609375 171.515625 274.441406 172.765625 276 173.539062 C 278.359375 174.714844 284.914062 169.398438 286.332031 167.648438 C 287.21875 166.558594 288.992188 164.070312 287.433594 163.046875 Z M 287.433594 163.046875 " fill-opacity="1" fill-rule="nonzero"/><path fill="#d5e9f2" d="M 140.539062 276.328125 C 140.539062 276.328125 149.347656 299.328125 156.722656 300.082031 C 164.101562 300.835938 164.316406 285.066406 164.316406 285.066406 Z M 140.539062 276.328125 " fill-opacity="1" fill-rule="nonzero"/><path fill="#a8d7e9" d="M 158.378906 282.792969 C 158.292969 285.023438 157.613281 295.910156 152.429688 297.289062 C 153.945312 298.875 155.488281 299.929688 156.972656 300.082031 C 164.347656 300.832031 164.5625 285.066406 164.5625 285.066406 Z M 158.378906 282.792969 " fill-opacity="1" fill-rule="nonzero"/><path fill="#d5e9f2" d="M 217.355469 285.066406 C 217.355469 285.066406 228.617188 302.398438 243.132812 298.777344 C 249.203125 297.257812 239.628906 276.328125 239.628906 276.328125 Z M 217.355469 285.066406 " fill-opacity="1" fill-rule="nonzero"/><path fill="#a8d7e9" d="M 239.640625 276.328125 L 233.597656 278.699219 C 236.035156 284.820312 239.878906 296.171875 235.46875 297.273438 C 234.320312 297.558594 233.152344 297.722656 231.96875 297.757812 C 235.328125 299.167969 239.109375 299.78125 243.144531 298.777344 C 249.207031 297.257812 239.640625 276.328125 239.640625 276.328125 Z M 239.640625 276.328125 " fill-opacity="1" fill-rule="nonzero"/><path fill="#3aedb1" d="M 203.175781 144.617188 C 202.960938 144.609375 202.773438 144.683594 202.617188 144.832031 C 202.460938 144.980469 202.378906 145.160156 202.371094 145.375 C 202.371094 145.425781 202.230469 148.9375 200 150.777344 C 197.867188 152.539062 194.003906 153.128906 192.128906 153.125 C 190.378906 153.199219 186.390625 152.539062 184.257812 150.777344 C 182.027344 148.9375 181.886719 145.425781 181.886719 145.375 C 181.871094 145.167969 181.785156 144.996094 181.628906 144.855469 C 181.472656 144.71875 181.292969 144.652344 181.082031 144.660156 C 180.875 144.664062 180.699219 144.742188 180.550781 144.886719 C 180.402344 145.035156 180.328125 145.214844 180.320312 145.421875 C 180.320312 145.59375 180.472656 149.683594 183.261719 151.988281 C 186.109375 154.339844 189.785156 154.699219 191.757812 154.699219 C 194.109375 154.699219 198.148438 154.339844 200.996094 151.988281 C 203.789062 149.683594 203.933594 145.59375 203.9375 145.421875 C 203.941406 145.207031 203.871094 145.019531 203.722656 144.863281 C 203.574219 144.703125 203.394531 144.621094 203.175781 144.617188 Z M 203.175781 144.617188 " fill-opacity="1" fill-rule="nonzero"/><path fill="#3aedb1" d="M 174.839844 137.972656 C 174.691406 137.972656 174.550781 137.945312 174.414062 137.890625 C 174.277344 137.832031 174.15625 137.753906 174.050781 137.648438 C 173.949219 137.546875 173.867188 137.425781 173.808594 137.289062 C 173.75 137.15625 173.722656 137.011719 173.71875 136.867188 C 173.652344 135.894531 173.363281 134.996094 172.855469 134.167969 C 171.792969 132.476562 169.90625 131.613281 167.257812 131.613281 L 167.203125 131.613281 C 161.480469 131.640625 160.695312 136.445312 160.664062 136.648438 C 160.644531 136.792969 160.59375 136.929688 160.519531 137.058594 C 160.441406 137.1875 160.34375 137.296875 160.226562 137.382812 C 160.105469 137.472656 159.976562 137.535156 159.832031 137.574219 C 159.6875 137.609375 159.542969 137.617188 159.394531 137.59375 C 159.25 137.574219 159.109375 137.523438 158.984375 137.449219 C 158.855469 137.375 158.746094 137.277344 158.660156 137.15625 C 158.570312 137.039062 158.507812 136.90625 158.46875 136.761719 C 158.433594 136.617188 158.425781 136.472656 158.449219 136.324219 C 158.800781 133.914062 161.09375 129.40625 167.191406 129.371094 L 167.257812 129.371094 C 175.777344 129.371094 175.960938 136.765625 175.960938 136.839844 C 175.964844 136.988281 175.9375 137.132812 175.882812 137.269531 C 175.828125 137.410156 175.746094 137.53125 175.640625 137.636719 C 175.539062 137.742188 175.417969 137.828125 175.28125 137.882812 C 175.144531 137.941406 175 137.972656 174.851562 137.972656 Z M 174.839844 137.972656 " fill-opacity="1" fill-rule="nonzero"/><path fill="#3aedb1" d="M 220.417969 137.972656 C 220.269531 137.972656 220.128906 137.945312 219.992188 137.890625 C 219.855469 137.832031 219.734375 137.753906 219.628906 137.648438 C 219.523438 137.546875 219.441406 137.425781 219.386719 137.289062 C 219.328125 137.15625 219.296875 137.011719 219.296875 136.867188 C 219.226562 135.894531 218.9375 134.996094 218.429688 134.167969 C 217.367188 132.476562 215.484375 131.613281 212.832031 131.613281 L 212.78125 131.613281 C 207.058594 131.640625 206.273438 136.445312 206.238281 136.648438 C 206.21875 136.792969 206.167969 136.929688 206.09375 137.058594 C 206.019531 137.1875 205.921875 137.296875 205.800781 137.382812 C 205.683594 137.472656 205.550781 137.535156 205.40625 137.574219 C 205.261719 137.609375 205.117188 137.617188 204.96875 137.59375 C 204.824219 137.574219 204.6875 137.523438 204.558594 137.449219 C 204.429688 137.375 204.324219 137.277344 204.234375 137.15625 C 204.144531 137.039062 204.082031 136.90625 204.046875 136.761719 C 204.007812 136.617188 204 136.472656 204.023438 136.324219 C 204.382812 133.933594 206.671875 129.410156 212.769531 129.386719 L 212.832031 129.386719 C 221.355469 129.386719 221.539062 136.777344 221.539062 136.851562 C 221.539062 137 221.511719 137.144531 221.457031 137.28125 C 221.402344 137.421875 221.324219 137.542969 221.21875 137.648438 C 221.113281 137.753906 220.996094 137.839844 220.859375 137.894531 C 220.722656 137.953125 220.578125 137.984375 220.429688 137.988281 Z M 220.417969 137.972656 " fill-opacity="1" fill-rule="nonzero"/></svg>