<svg xmlns="http://www.w3.org/2000/svg" xmlns:xlink="http://www.w3.org/1999/xlink" width="500" zoomAndPan="magnify" viewBox="0 0 375 374.999991" height="500" preserveAspectRatio="xMidYMid meet" version="1.0"><defs><clipPath id="0efdd1cf57"><path d="M 54 65.441406 L 318 65.441406 L 318 307 L 54 307 Z M 54 65.441406 " clip-rule="nonzero"/></clipPath></defs><rect x="-37.5" width="450" fill="#ffffff" y="-37.499999" height="449.999989" fill-opacity="1"/><rect x="-37.5" width="450" fill="#ffffff" y="-37.499999" height="449.999989" fill-opacity="1"/><rect x="-37.5" width="450" fill="#ff006e" y="-37.499999" height="449.999989" fill-opacity="1"/><g clip-path="url(#0efdd1cf57)"><path fill="#e7f2f1" d="M 317.03125 178.605469 C 316.183594 171.460938 305.136719 178.605469 305.136719 178.605469 C 305.136719 178.605469 321.910156 159.019531 313.703125 152.914062 C 305.476562 146.789062 292.183594 165.675781 279.105469 165.675781 C 277.472656 165.675781 275.4375 165.378906 273.082031 164.828125 C 256.632812 161.054688 224.808594 145.75 207.382812 142.230469 C 194.300781 139.601562 173.503906 140.429688 160.738281 141.296875 C 160.738281 119.785156 170.660156 112.832031 170.597656 99.054688 C 170.597656 80.78125 154.210938 65.964844 133.984375 65.964844 C 116.113281 65.964844 101.25 77.515625 98.007812 92.777344 C 89.039062 105.136719 75.40625 108.929688 59.039062 107.742188 C 55.054688 107.445312 52.617188 112.28125 55.328125 115.203125 C 63.046875 123.535156 84.777344 125.464844 108.183594 122.539062 C 111.171875 125.230469 114.691406 127.457031 118.570312 129.066406 L 118.570312 129.089844 C 118.570312 129.089844 94.234375 163.746094 111.109375 207.007812 C 124.253906 240.710938 152.535156 251.097656 172.039062 254.066406 L 172.039062 274.625 C 172.039062 279.226562 168.859375 283.210938 164.367188 284.230469 L 130.125 292.007812 C 136.890625 294.488281 144.777344 295.613281 155.714844 295.613281 L 142.296875 299.808594 C 169.367188 307.523438 195.804688 308.691406 221.332031 299.808594 L 205.347656 289.589844 C 201.996094 287.449219 199.960938 283.742188 199.960938 279.757812 L 199.960938 254.871094 C 218.703125 254.214844 245.035156 251.839844 258.050781 243.953125 C 270.007812 236.726562 283.386719 222.058594 288.730469 215.890625 C 290.148438 214.257812 291.953125 213.027344 294.007812 212.308594 C 295.875 211.628906 298.269531 210.441406 299.902344 208.40625 C 301.214844 206.734375 301.746094 204.59375 301.9375 202.707031 C 302.214844 199.71875 303.507812 196.941406 305.730469 194.925781 C 310.460938 190.707031 317.625 183.4375 317.03125 178.605469 Z M 317.03125 178.605469 " fill-opacity="1" fill-rule="nonzero"/></g><path fill="#ffc05a" d="M 205.347656 289.589844 L 221.332031 299.808594 C 195.804688 308.691406 169.367188 307.523438 142.296875 299.808594 L 155.714844 295.613281 L 155.738281 295.613281 L 180.328125 287.917969 C 183.699219 286.878906 185.988281 283.742188 185.988281 280.222656 L 185.988281 255.125 C 189.65625 255.125 194.492188 255.082031 199.960938 254.871094 L 199.960938 279.757812 C 199.960938 283.742188 201.996094 287.449219 205.347656 289.589844 Z M 205.347656 289.589844 " fill-opacity="1" fill-rule="nonzero"/><path fill="#f9b132" d="M 185.988281 255.125 L 185.988281 280.222656 C 185.988281 283.742188 183.699219 286.878906 180.328125 287.917969 L 155.738281 295.613281 L 155.714844 295.613281 C 144.777344 295.613281 136.890625 294.488281 130.125 292.007812 L 164.367188 284.230469 C 168.859375 283.210938 172.039062 279.226562 172.039062 274.625 L 172.039062 254.066406 C 177.574219 254.890625 182.40625 255.125 185.988281 255.125 Z M 185.988281 255.125 " fill-opacity="1" fill-rule="nonzero"/><path fill="#f9b132" d="M 97.351562 99.054688 C 97.351562 108.230469 101.484375 116.539062 108.183594 122.539062 C 84.777344 125.464844 63.046875 123.535156 55.328125 115.203125 C 52.617188 112.28125 55.054688 107.445312 59.039062 107.742188 C 75.40625 108.929688 89.039062 105.136719 98.007812 92.777344 C 97.582031 94.8125 97.351562 96.910156 97.351562 99.054688 Z M 97.351562 99.054688 " fill-opacity="1" fill-rule="nonzero"/><path fill="#543927" d="M 129.023438 97.695312 C 131.589844 97.695312 133.667969 99.773438 133.667969 102.339844 C 133.667969 104.925781 131.589844 107 129.023438 107 C 126.4375 107 124.359375 104.925781 124.359375 102.339844 C 124.359375 99.773438 126.4375 97.695312 129.023438 97.695312 Z M 129.023438 97.695312 " fill-opacity="1" fill-rule="nonzero"/><path fill="#d6eae8" d="M 273.082031 164.828125 C 273.082031 164.828125 280.164062 168.664062 280.164062 177.289062 C 280.164062 182.3125 277.070312 187.0625 274.480469 190.15625 C 272.914062 192.023438 272.828125 194.671875 274.101562 196.769531 C 275.160156 198.488281 275.859375 200.925781 274.992188 204.082031 C 273.167969 210.675781 251.839844 221.953125 234.519531 223.074219 C 232.929688 223.183594 231.699219 224.453125 231.636719 226.042969 C 231.59375 227.039062 231.359375 228.183594 230.746094 229.351562 C 227.394531 235.667969 185.988281 243.382812 153.445312 222.589844 C 120.902344 201.773438 133.984375 161.753906 133.984375 161.753906 C 133.984375 161.753906 129.40625 213.007812 176.917969 223.054688 C 224.425781 233.101562 223.960938 220.234375 223.960938 220.234375 C 223.960938 220.234375 227.566406 215.421875 234.414062 215.421875 C 241.238281 215.421875 273.804688 207.792969 263.753906 198.953125 C 263.753906 198.953125 257.4375 192.808594 266.171875 186.003906 C 277.429688 177.226562 267.335938 163.257812 267.335938 163.257812 C 269.414062 163.894531 271.324219 164.425781 273.082031 164.828125 Z M 273.082031 164.828125 " fill-opacity="1" fill-rule="nonzero"/><path fill="#d6eae8" d="M 172.039062 254.066406 C 152.535156 251.097656 124.253906 240.710938 111.109375 207.007812 C 94.234375 163.746094 118.570312 129.089844 118.570312 129.089844 L 118.570312 129.066406 C 123.257812 131.039062 128.472656 132.140625 133.984375 132.140625 C 133.984375 132.140625 75.257812 208.152344 165.890625 239.058594 C 165.890625 239.058594 232.78125 257.414062 280.164062 213.980469 C 280.164062 213.980469 285.359375 207.304688 291.632812 203.554688 C 297.886719 199.800781 306.558594 180.449219 292.355469 183.796875 C 292.355469 183.796875 319.980469 154.101562 305.179688 152.933594 L 305.179688 152.914062 C 308.382812 151.472656 311.265625 151.089844 313.703125 152.914062 C 321.910156 159.019531 305.136719 178.605469 305.136719 178.605469 C 305.136719 178.605469 316.183594 171.460938 317.03125 178.605469 C 317.625 183.4375 310.460938 190.707031 305.730469 194.925781 C 303.507812 196.941406 302.210938 199.71875 301.9375 202.707031 C 301.746094 204.59375 301.214844 206.734375 299.902344 208.40625 C 298.269531 210.441406 295.875 211.628906 294.007812 212.308594 C 291.953125 213.027344 290.148438 214.257812 288.730469 215.890625 C 283.386719 222.058594 270.007812 236.726562 258.050781 243.953125 C 245.035156 251.839844 218.703125 254.214844 199.960938 254.871094 C 194.492188 255.082031 189.65625 255.125 185.988281 255.125 C 182.40625 255.125 177.574219 254.890625 172.039062 254.066406 Z M 172.039062 254.066406 " fill-opacity="1" fill-rule="nonzero"/></svg>